<?xml version="1.0" encoding="UTF-8"?><svg id="Layer_1" xmlns="http://www.w3.org/2000/svg" viewBox="0 0 1080 1080"><defs><style>.cls-1{fill:#1f4395;}</style></defs><path id="Blue_Element" class="cls-1" d="M763.64,836.26c-5.51-3.75-11.27-7.55-17.14-11.41,2.1,1.04,4.25,2.02,6.49,2.88,1.61.66,3.27,1.23,4.95,1.73,1.71.54,3.46.98,5.25,1.35,1.81.36,3.67.65,5.6.81,1.93.14,3.93.18,5.98.07,2.04-.13,4.16-.48,6.33-.96.52-.14,1.08-.26,1.61-.43l1.64-.51c1.08-.38,2.19-.78,3.25-1.29l1.6-.75,1.56-.82c1.07-.54,2.03-1.19,3.02-1.82l.76-.48.71-.51,1.42-1.04c.5-.35.91-.72,1.38-1.09l1.38-1.12c.89-.76,1.72-1.55,2.59-2.38.26-.26.52-.52.77-.79.12-.11.24-.23.35-.34,3.24-3.24,5.6-7,7.09-11.03,4.17-11.04,1.79-24-7.11-32.9-10.79-10.78-27.55-11.97-39.65-3.54-1.51,1.03-2.94,2.22-4.27,3.56-12.12,12.13-12.11,31.81.02,43.93.78.78,1.6,1.51,2.45,2.19-.86.16-1.72.3-2.6.39-1.46.15-2.98.22-4.52.21-1.52,0-3.06-.1-4.61-.23-1.53-.19-3.09-.38-4.63-.7-3.09-.57-6.16-1.44-9.13-2.56-1.51-.52-2.98-1.15-4.42-1.84-.71-.31-1.4-.66-2.08-1.02-8.78-5.76-17.58-11.6-26-17.48-17.11-12-34.25-25.41-51.75-36.74-6.73-4.1-13.74-7.69-20.95-10.82,16.29-.5,28.71-2.26,45.49-6.05,25.6-5.65,50.5-16.17,71.2-32.42,17.29-13.19,30.65-30.43,44.17-47.37,4.97-6.4,9.92-12.87,14.8-19.41.67-.42,1.34-.84,2.03-1.22,3.37-1.99,6.9-3.7,10.53-5.05,1.8-.72,3.65-1.27,5.47-1.83,1.85-.5,3.7-.93,5.54-1.27,1.87-.34,3.72-.57,5.52-.7,1.09-.08,2.17-.1,3.24-.09-.88,1.01-1.71,2.07-2.5,3.18-12.12,17.29-7.92,41.15,9.36,53.27,1.91,1.34,3.89,2.48,5.94,3.4,16.48,7.63,36.54,2.61,47.32-12.77,8.89-12.69,9.01-28.91,1.59-41.4-2.67-4.57-6.34-8.63-10.95-11.86-.17-.12-.33-.22-.5-.34-.37-.27-.73-.53-1.11-.79-1.22-.81-2.4-1.6-3.64-2.33l-1.91-1.07c-.64-.35-1.21-.71-1.9-1.02l-1.95-.95-.97-.47-1.02-.43c-1.34-.55-2.65-1.13-4.06-1.57l-2.07-.67-2.1-.56c-1.39-.4-2.83-.64-4.21-.87l-2.1-.27c-.68-.09-1.38-.12-2.04-.17-2.74-.12-5.37-.1-7.88.19-2.52.3-4.93.77-7.24,1.36-2.3.61-4.5,1.36-6.62,2.18-2.09.84-4.13,1.74-6.08,2.77-1.94.97-3.83,2.02-5.64,3.16-3.64,2.19-7.01,4.63-10.26,7.13-1.42,1.09-2.79,2.22-4.15,3.36,4.84-6.65,9.57-13.38,14.1-20.21,5.44-8.34,10.33-17.25,14.31-26.53,7.55-17.92,10.91-34.06,18.75-51.12,14.58-34.01,34.8-63.65,55.78-95.29-46.76,18.89-83.76,60.07-100.29,107.68-3.35,9.74-5.42,18.66-7.64,27.31-4.33,17.41-9.35,36.39-14.22,53.83-8.22,30.95-21.6,56.62-47.2,76.63-7.9,6.46-16.76,11.97-26.25,16.58,3.8-3.03,7.55-6.22,11.13-9.71,2.94-2.86,5.82-5.86,8.5-9.16,1.38-1.63,2.69-3.35,3.92-5.14,1.29-1.79,2.46-3.68,3.59-5.63,1.11-1.99,2.16-4.05,3.09-6.25.91-2.2,1.71-4.53,2.36-6.98.63-2.44,1.03-5.05,1.29-7.77.04-.66.1-1.36.11-2.05l.02-2.11c-.03-1.4-.07-2.86-.27-4.29l-.26-2.16-.37-2.14c-.23-1.46-.62-2.83-.98-4.23l-.28-1.07-.33-1.02-.67-2.06c-.22-.72-.49-1.34-.75-2.02l-.79-2.04c-.55-1.33-1.16-2.61-1.79-3.93-.2-.41-.42-.8-.63-1.21-.09-.18-.17-.36-.26-.54-2.56-5.02-6.06-9.23-10.21-12.51-11.33-9.1-27.41-11.25-41.22-4.23-16.74,8.52-24.52,27.69-19.27,45.07.63,2.16,1.48,4.28,2.54,6.36,9.58,18.82,32.61,26.31,51.43,16.73,1.21-.62,2.38-1.3,3.5-2.03-.14,1.06-.31,2.13-.54,3.19-.39,1.77-.87,3.57-1.47,5.37-.59,1.78-1.28,3.55-2.03,5.31-.81,1.72-1.62,3.48-2.58,5.16-1.85,3.4-4.04,6.66-6.47,9.71-1.19,1.57-2.48,3.04-3.84,4.47-.32.35-.66.68-.99,1.02-30.92,13.85-67.72,18.62-99.84,16.01-18.86-6.19-38.73-9.41-58.57-9.75-10.3-.22-20.61.27-30.87,1.3,1-1.26,2-2.51,3-3.73l2.5-2.95,2.56-2.82c.83-.96,1.73-1.83,2.59-2.75.85-.93,1.74-1.81,2.66-2.66,7.14-6.97,15.34-13.09,24.02-18.56,8.76-5.38,18.15-10,28.08-13.98,9.94-3.99,20.37-7.25,31.23-10.57-11.16-2.14-22.65-2.25-34.11-.92-11.45,1.4-22.85,4.54-33.65,9.36-2.67,1.27-5.39,2.47-7.94,3.97-2.62,1.39-5.15,2.96-7.67,4.55-4.92,3.33-9.82,6.86-14.19,11.02-2.21,2.02-4.33,4.12-6.36,6.29,11.74-21.84,22.47-44.22,30.97-67.52,3.31-9.36,6.43-19.81,9.17-29.29,6.55-22.2,12.5-45.55,29.16-62.15,6.1-6.23,13.03-11.63,20.32-16.44,1.83-.44,3.68-.82,5.55-1.06,3.87-.6,7.78-.88,11.65-.79,1.94,0,3.87.17,5.76.32,1.9.23,3.78.51,5.62.88,1.86.38,3.66.85,5.39,1.39,1.04.33,2.05.71,3.04,1.12-1.19.61-2.36,1.29-3.5,2.03-17.66,11.57-22.6,35.29-11.02,52.95,1.28,1.95,2.69,3.74,4.26,5.36,12.48,13.19,32.98,15.96,48.69,5.66,12.96-8.49,19.07-23.52,16.81-37.87-.79-5.23-2.69-10.36-5.78-15.08-.11-.17-.23-.33-.34-.5-.24-.38-.48-.77-.73-1.14-.83-1.21-1.64-2.38-2.52-3.51l-1.38-1.7c-.47-.56-.87-1.11-1.39-1.65l-1.46-1.61-.72-.8-.79-.77c-1.04-1.01-2.04-2.03-3.19-2.96l-1.67-1.38-1.74-1.3c-1.14-.88-2.39-1.64-3.59-2.37l-1.85-1.03c-.6-.33-1.24-.62-1.83-.92-2.5-1.13-4.95-2.08-7.39-2.74-2.45-.66-4.86-1.11-7.23-1.42-2.37-.29-4.68-.4-6.96-.42-2.26,0-4.48.09-6.67.32-2.16.18-4.3.46-6.4.85-4.19.69-8.23,1.7-12.17,2.83-3.49,1-6.88,2.15-10.2,3.39,1.21-.72,2.42-1.44,3.64-2.14,15.76-8.87,32.54-15.49,49.77-18.75,34.26-6.35,66.07,2.29,99.08,15.15-17.17-39.65-64.35-59.83-105.94-51.17-26.33,5.14-50.23,20.25-67.86,40.22-9.85,11-18.23,23.56-23.92,37.22-1.06,2.61-1.99,5.26-2.84,7.93.57-2.72,1.06-5.47,1.39-8.3.32-2.7.55-5.46.56-8.28.03-1.42-.02-2.85-.13-4.29-.09-1.46-.27-2.93-.5-4.41-.26-1.49-.58-2.99-1.02-4.51-.45-1.51-1.01-3.05-1.7-4.58-.7-1.52-1.58-3.03-2.59-4.55-.26-.36-.51-.74-.8-1.1l-.87-1.1c-.6-.71-1.23-1.44-1.94-2.1l-1.04-1-1.09-.95c-.73-.65-1.5-1.2-2.28-1.77l-.59-.44-.6-.39-1.21-.78c-.41-.28-.81-.49-1.23-.73l-1.26-.72c-.84-.46-1.69-.86-2.57-1.28-.27-.13-.55-.24-.83-.36-.12-.06-.24-.12-.36-.17-3.42-1.52-6.98-2.22-10.5-2.18-9.65.05-18.84,5.66-23.03,15.06-5.07,11.4-1.07,24.53,8.91,31.3,1.23.85,2.56,1.59,3.97,2.22,12.81,5.7,27.82-.07,33.52-12.88.37-.83.68-1.67.96-2.51.37.61.73,1.23,1.06,1.87.54,1.07,1.04,2.21,1.49,3.38.44,1.16.82,2.37,1.17,3.59.3,1.23.62,2.47.83,3.74.47,2.53.7,5.12.72,7.72.04,1.31,0,2.61-.11,3.91-.07,1.31-.24,2.6-.45,3.88h.02c-3.6,13.94-5.37,28.47-8.39,42.23-7.55-6.65-14.6-13.96-21.11-21.7-29.66-34.88-47.83-82.29-31.75-127.27,6.16-17.46,16.65-32.79,28.66-46.79.03-.02.06-.03.09-.05,1.76-.88,3.55-1.69,5.4-2.37,3.64-1.44,7.39-2.59,11.18-3.37,1.89-.43,3.81-.7,5.69-.97,1.91-.21,3.8-.35,5.67-.4,1.9-.05,3.76,0,5.57.15,1.09.08,2.16.24,3.21.41-1.02.86-2.01,1.78-2.96,2.76-14.63,15.22-14.15,39.44,1.07,54.07,1.68,1.61,3.46,3.05,5.35,4.27,15.11,10.07,35.71,8.2,48.72-5.34,10.74-11.17,13.34-27.18,7.93-40.67-1.93-4.93-4.94-9.5-9-13.4-.15-.14-.3-.27-.44-.41-.32-.32-.64-.64-.97-.95-1.08-.99-2.13-1.95-3.24-2.86l-1.72-1.35c-.58-.44-1.09-.89-1.72-1.3l-1.78-1.24-.88-.61-.94-.58c-1.24-.75-2.44-1.53-3.77-2.17l-1.94-.98-1.99-.88c-1.31-.61-2.69-1.07-4.03-1.51l-2.03-.59c-.66-.19-1.34-.33-1.99-.49-2.68-.54-5.29-.92-7.81-1.03-2.53-.09-4.99,0-7.36.23-2.37.25-4.65.65-6.88,1.14-2.2.51-4.35,1.09-6.43,1.8-2.06.66-4.09,1.41-6.05,2.26-3.93,1.6-7.64,3.49-11.23,5.47-3.88,2.13-7.56,4.46-11.14,6.88,1.84-2.06,3.71-4.1,5.6-6.11,27.95-29.91,52.4-36.13,89.86-48.17,24-7.67,48.67-23.37,63.63-44.85,30.59-41.91,34.52-99.7,13.75-146.48-15.26,42.07-27,89.97-56.2,123.61-15.21,18.31-34.05,32.85-52.43,48.6,2.13-2.62,4.2-5.35,6.11-8.26,1.21-1.77,2.33-3.61,3.37-5.51,1.1-1.91,2.07-3.91,2.99-5.97.9-2.09,1.73-4.25,2.43-6.53.67-2.28,1.24-4.68,1.63-7.18.38-2.49.51-5.13.48-7.87-.03-.66-.04-1.36-.1-2.05l-.19-2.1c-.18-1.39-.37-2.84-.71-4.24l-.48-2.12-.59-2.09c-.38-1.42-.91-2.75-1.41-4.11l-.39-1.04-.44-.98-.88-1.98c-.29-.7-.63-1.28-.95-1.94l-1-1.95c-.68-1.27-1.42-2.48-2.19-3.73-.24-.38-.5-.76-.75-1.13-.11-.17-.21-.34-.32-.51-3.06-4.73-6.97-8.56-11.44-11.4-12.21-7.89-28.42-8.39-41.43.02-15.78,10.19-21.56,30.05-14.55,46.81.85,2.09,1.91,4.11,3.17,6.07,11.45,17.74,35.14,22.83,52.87,11.38,1.15-.74,2.23-1.54,3.28-2.38-.03,1.07-.09,2.15-.21,3.23-.2,1.8-.5,3.64-.91,5.49-.41,1.83-.91,3.66-1.48,5.49-.63,1.79-1.26,3.62-2.04,5.4-1.49,3.57-3.33,7.03-5.44,10.33-.56.92-1.16,1.81-1.78,2.69-13.34,12.56-25.39,25.58-36.79,39.61-6.43,7.88-16.14,18.99-22.47,26.74-11.04,13.6-20.43,28.65-26.25,45.26-16.21,45.75,1.76,94.43,30.41,131.09,7.04,9.22,14.73,17.94,23.09,26.1-6.24,25.01-16.01,48.99-27.36,72.1-5.09,10.44-10.29,20.91-16.01,31.05-2.93,3.69-5.68,7.37-8.32,10.98-6.45,8.77-12.77,16.79-20.06,24.21-3.64,3.7-7.44,7.26-11.4,10.67-3.99,3.37-8.1,6.64-12.38,9.72-10.02,7.21-20.84,13.49-32.21,19.14.73-.5,1.46-1,2.19-1.51,3.34-2.37,6.66-4.89,9.81-7.73,1.62-1.4,3.17-2.9,4.66-4.47,1.55-1.57,3-3.25,4.42-5.01,1.4-1.79,2.76-3.67,4.02-5.7,1.23-2.04,2.39-4.21,3.41-6.53,1-2.31,1.8-4.83,2.47-7.48.14-.65.31-1.33.43-2l.35-2.08c.18-1.39.37-2.84.39-4.28l.07-2.17-.04-2.17c0-1.47-.18-2.89-.32-4.34l-.11-1.1-.17-1.06-.34-2.14c-.1-.75-.28-1.4-.43-2.12l-.47-2.14c-.33-1.4-.74-2.76-1.17-4.16-.14-.43-.29-.86-.43-1.29-.06-.19-.11-.39-.18-.58-1.75-5.36-4.56-10.05-8.16-13.93-9.79-10.74-25.34-15.35-40.07-10.54-17.85,5.83-28.5,23.57-26,41.55.29,2.23.8,4.46,1.52,6.68,6.56,20.07,28.16,31.03,48.23,24.47,1.3-.42,2.55-.92,3.77-1.46-.3,1.03-.63,2.06-1.03,3.07-.66,1.69-1.41,3.39-2.28,5.08-.86,1.67-1.81,3.31-2.83,4.94-1.07,1.57-2.14,3.18-3.35,4.7-2.35,3.08-5.01,5.95-7.9,8.6-1.12,1.08-2.31,2.08-3.53,3.06-1.75.78-3.51,1.54-5.28,2.3-34.52,9.48-72.3,9.61-107.25,3.78,6.12-11.15,10.92-23,13.96-35.5,6.14-24.51,4.2-50.07-1.22-74.52.1-.76.21-1.52.35-2.28.3-1.95.68-3.87,1.2-5.77.93-3.8,2.18-7.52,3.74-11.06.75-1.79,1.64-3.5,2.51-5.19.94-1.67,1.92-3.3,2.97-4.85,1.06-1.57,2.19-3.06,3.35-4.44.7-.84,1.45-1.62,2.2-2.38.11,1.33.28,2.67.53,4.01,3.9,20.75,23.9,34.42,44.65,30.52,2.29-.43,4.49-1.05,6.59-1.87,16.97-6.45,27.4-24.31,23.93-42.78-2.86-15.23-14.38-26.64-28.51-30.07-5.13-1.28-10.6-1.49-16.14-.45-.2.04-.39.08-.59.12-.45.08-.89.15-1.34.24-1.44.3-2.82.6-4.21.98l-2.1.62c-.7.22-1.35.38-2.06.65l-2.04.73-1.01.36-1.02.43c-1.33.58-2.66,1.1-3.95,1.81l-1.92,1.01-1.87,1.11c-1.26.72-2.43,1.57-3.57,2.4l-1.66,1.31c-.54.43-1.05.9-1.55,1.34-2,1.87-3.82,3.78-5.37,5.77-1.55,2.01-2.89,4.06-4.09,6.13-1.17,2.08-2.17,4.17-3.06,6.26-.86,2.08-1.64,4.17-2.27,6.28-.66,2.06-1.23,4.15-1.68,6.24-.98,4.13-1.59,8.25-2.06,12.32-.64,5.49-.86,10.91-.92,16.28-.52-2.18-1.06-4.35-1.63-6.51-6.03-24-17.71-57.68-25.43-81.47-.48-1.8-.97-3.61-1.46-5.43,4.99-1.84,9.88-3.88,14.69-6.06,30.39-13.78,58.74-33.17,80.98-58.11,1.02-.89,2.06-1.76,3.18-2.54,1.21-.9,2.44-1.75,3.74-2.51,2.54-1.57,5.21-2.94,7.97-4.03,1.36-.58,2.77-1.03,4.15-1.49,1.41-.41,2.81-.77,4.22-1.06,1.42-.29,2.83-.5,4.21-.63.83-.08,1.66-.11,2.48-.12-.65.79-1.28,1.61-1.86,2.48-8.98,13.42-5.38,31.59,8.04,40.57,1.48.99,3.01,1.83,4.6,2.5,12.72,5.56,27.98,1.4,35.97-10.54,6.59-9.85,6.41-22.25.53-31.68-2.12-3.45-4.99-6.49-8.57-8.89-.13-.09-.26-.17-.39-.25-.28-.2-.57-.4-.86-.59-.95-.6-1.86-1.18-2.82-1.72l-1.48-.79c-.5-.26-.94-.52-1.47-.75l-1.51-.7-.75-.35-.79-.31c-1.04-.4-2.04-.82-3.13-1.13l-1.59-.48-1.61-.4c-1.07-.28-2.17-.44-3.23-.6l-1.61-.17c-.52-.05-1.06-.07-1.56-.1-2.09-.05-4.11.01-6.02.27-1.92.27-3.76.67-5.51,1.16-1.75.5-3.42,1.11-5.03,1.78-1.59.68-3.13,1.4-4.6,2.21-1.46.77-2.89,1.61-4.26,2.51-2.75,1.73-5.29,3.65-7.72,5.62-2.8,2.26-5.39,4.65-7.89,7.1,3.96-4.78,7.7-9.75,11.19-14.92,33.62-49.46,41.75-116.88,26.59-174.32-2.01-6.99-4.81-14.16-8.4-21.03-.57-1.44-1.11-2.89-1.55-4.37-1.2-3.72-2.09-7.54-2.62-11.38-.3-1.91-.44-3.84-.59-5.74-.08-1.92-.1-3.82-.02-5.69.08-1.9.26-3.75.52-5.54.16-1.08.38-2.14.62-3.18.79,1.08,1.64,2.13,2.56,3.13,14.21,15.61,38.41,16.75,54.02,2.54,1.72-1.57,3.27-3.25,4.62-5.05,11.06-14.4,10.56-35.08-2.08-48.97-10.43-11.46-26.23-15.13-40.05-10.63-5.04,1.6-9.81,4.29-13.98,8.09-.15.14-.29.28-.44.42-.34.3-.68.6-1.01.91-1.06,1.01-2.09,1.99-3.07,3.05l-1.46,1.63c-.48.55-.96,1.03-1.41,1.63l-1.36,1.69-.67.84-.64.9c-.83,1.19-1.69,2.33-2.42,3.61l-1.1,1.87-1.01,1.92c-.69,1.27-1.25,2.62-1.77,3.92l-.73,1.98c-.23.65-.42,1.32-.62,1.95-.72,2.64-1.27,5.22-1.55,7.73-.26,2.52-.33,4.98-.26,7.36.09,2.38.34,4.69.68,6.94.36,2.23.8,4.41,1.36,6.54.52,2.1,1.13,4.17,1.85,6.19,1.18,3.54,2.59,6.92,4.09,10.21-4.2-5.24-8.99-9.95-14.38-13.81-10.55-7.69-21.64-12.34-31.93-18.53-22.78-13.56-42.29-30.92-59.6-51.25-15.37-17.69-28.09-36.97-43.05-56.12-5.22,58.96,30.66,119.71,86.57,141.55,16.18,6.73,32.73,6.75,47.15,16.15,22.05,14.04,33.42,38.99,36.71,64.75-2.28-4.44-4.67-8.9-7.58-13.19-1.6-2.37-3.31-4.73-5.24-6.97-.95-1.15-1.97-2.26-3.05-3.33-1.07-1.1-2.22-2.15-3.43-3.16-1.23-1.01-2.52-1.99-3.91-2.9-1.4-.89-2.9-1.74-4.5-2.48-1.6-.74-3.34-1.33-5.19-1.85-.45-.11-.92-.24-1.39-.33l-1.45-.28c-.97-.15-1.97-.3-2.98-.34l-1.52-.08h-1.52c-1.03-.03-2.02.07-3.03.14l-.77.06-.75.1-1.5.21c-.52.06-.98.17-1.48.26l-1.5.29c-.98.21-1.94.47-2.93.75-.3.09-.6.19-.91.28-.14.04-.27.07-.41.11-3.77,1.14-7.09,3.02-9.86,5.47-7.65,6.66-11.12,17.45-8,27.81,3.79,12.56,16,20.28,28.59,18.82,1.56-.16,3.13-.49,4.68-.96,14.12-4.26,22.12-19.16,17.86-33.28-.27-.91-.6-1.8-.96-2.66.71.23,1.43.47,2.13.77,1.17.49,2.34,1.04,3.51,1.68,1.15.63,2.28,1.32,3.4,2.05,1.08.77,2.19,1.54,3.23,2.41,2.11,1.69,4.08,3.6,5.88,5.65.93,1.01,1.79,2.08,2.6,3.19.78,1,1.47,2.05,2.13,3.12.97,8.36,1.11,16.79.48,24.95-1.87,35.44-11.93,71.03-32.32,100.35-26.43,38.27-67.17,65.82-111.28,79.73-2.43-9.15-4.87-18.45-7.4-27.74-.21-1.15-.38-2.31-.49-3.48-.25-1.95-.41-3.91-.44-5.88-.15-3.91.02-7.83.55-11.66.22-1.92.61-3.82.98-5.68.44-1.87.94-3.7,1.52-5.48.59-1.8,1.26-3.54,2-5.2.44-1,.94-1.95,1.46-2.89.47,1.25,1.01,2.49,1.62,3.71,9.47,18.87,32.46,26.5,51.33,17.03,2.08-1.04,4.03-2.25,5.81-3.62,14.54-10.88,19.64-30.93,11.21-47.72-6.95-13.85-21.17-21.65-35.69-21.04-5.29.18-10.6,1.49-15.64,4.01-.18.09-.36.19-.54.28-.41.2-.82.39-1.22.6-1.3.69-2.55,1.35-3.78,2.1l-1.85,1.17c-.61.4-1.2.73-1.8,1.19l-1.76,1.26-.87.63-.86.7c-1.12.92-2.25,1.79-3.3,2.83l-1.57,1.5-1.49,1.58c-1.01,1.04-1.91,2.18-2.77,3.29l-1.23,1.71c-.4.56-.76,1.16-1.12,1.71-1.41,2.35-2.63,4.68-3.57,7.02-.93,2.36-1.66,4.71-2.24,7.02-.56,2.32-.94,4.6-1.22,6.86-.25,2.24-.42,4.46-.45,6.67-.06,2.17-.04,4.32.11,6.46.2,4.13.72,8.16,1.37,12.11-2.22-7.58-4.51-15.05-6.92-22.3-2.28-7.15-4.67-14.55-6.71-21.75-16.95-60.53,9.39-115.72,37.23-168.47-41.74,31.35-72.43,80.93-72.71,134.2-.51,24.23,7.15,46.12,19.96,66.26,15.21,24.1,31.5,47.51,42.22,74.04,2.75,7.24,5.69,16.42,8.47,25.23-2.85-4.82-5.84-9.64-9.38-14.25-1.99-2.6-4.1-5.18-6.47-7.62-1.17-1.25-2.41-2.45-3.71-3.6-1.3-1.19-2.69-2.3-4.14-3.38-1.47-1.07-3.01-2.1-4.67-3.04-1.66-.93-3.43-1.79-5.32-2.53-1.88-.73-3.91-1.29-6.05-1.76-.52-.1-1.07-.21-1.61-.28l-1.68-.22c-1.12-.11-2.28-.21-3.43-.19h-1.74s-1.74.1-1.74.1c-1.18.04-2.3.23-3.46.38l-.88.12-.84.17-1.7.34c-.59.1-1.11.26-1.68.4l-1.69.44c-1.11.31-2.18.67-3.29,1.05-.34.12-.68.25-1.02.38-.15.05-.31.1-.46.16-4.23,1.56-7.9,3.94-10.9,6.93-8.3,8.14-11.53,20.71-7.25,32.33,5.19,14.1,19.67,22.09,33.97,19.56,1.78-.29,3.54-.77,5.29-1.41,15.85-5.83,23.98-23.41,18.15-39.26-.38-1.02-.81-2.01-1.28-2.97.83.21,1.66.44,2.49.73,1.37.47,2.75,1.03,4.12,1.68,1.36.64,2.7,1.35,4.03,2.11,1.29.81,2.61,1.62,3.85,2.54,2.53,1.79,4.9,3.83,7.1,6.06,1.13,1.09,2.18,2.26,3.19,3.47,1.04,1.18,1.98,2.45,2.86,3.73,1.46,4.61,2.86,9.07,4.16,13.03,8.28,26.91,16.83,54.24,18.61,82.42,6.15,89.5-75.34,147.09-149.17,179.17v7.8c32.48-14.86,65-31.49,91.93-55.17,15.59-13.72,29.72-29.63,40.51-47.45,14.17,1.73,28.47,2.74,42.75,2.73.4.06.81.11,1.21.18,3.86.61,7.68,1.53,11.33,2.79,1.85.59,3.63,1.34,5.39,2.06,1.74.79,3.45,1.64,5.08,2.55,1.66.92,3.23,1.92,4.71,2.97.89.63,1.73,1.3,2.56,1.99-1.32.22-2.64.51-3.95.87-20.35,5.64-32.28,26.72-26.63,47.07.62,2.24,1.43,4.39,2.42,6.4,7.86,16.37,26.54,25.25,44.65,20.23,14.93-4.14,25.33-16.59,27.55-30.95.85-5.23.59-10.69-.91-16.12-.05-.19-.12-.39-.17-.58-.11-.44-.23-.88-.35-1.31-.43-1.41-.84-2.76-1.33-4.11l-.79-2.04c-.28-.68-.49-1.32-.82-2l-.9-1.98-.45-.98-.52-.98c-.69-1.28-1.32-2.56-2.14-3.79l-1.17-1.83-1.26-1.77c-.82-1.19-1.77-2.29-2.7-3.35l-1.44-1.54c-.47-.5-.99-.97-1.47-1.43-2.03-1.84-4.08-3.49-6.2-4.87-2.13-1.37-4.29-2.54-6.45-3.55-2.17-.99-4.34-1.81-6.5-2.52-2.15-.68-4.29-1.28-6.45-1.73-1.77-.4-3.55-.73-5.32-.98,3.68-.36,7.35-.8,11.01-1.33,10.2-1.41,20.03-3.46,29.48-6.16,20.4-2.24,40.68-8.22,59.33-18.21,5.08-2.74,10.05-5.75,14.82-9.08,4.81-3.28,9.37-6.91,13.77-10.76,8.82-7.66,16.64-16.67,23.47-25.49.97-1.22,1.91-2.42,2.85-3.62,36.7-6.72,75.42-3.78,109.42,12.06,1.71.85,8.12,4.13,9.75,4.94,2.27,1.37,7.06,4.25,9.36,5.63,4.61,3.08,9.11,6.39,13.35,9.98.68.93,1.35,1.88,1.95,2.88.83,1.31,1.61,2.65,2.29,4.04,1.42,2.73,2.62,5.58,3.53,8.49.49,1.45.85,2.93,1.21,4.38.31,1.48.58,2.95.77,4.42.19,1.48.29,2.95.32,4.37.02.86-.01,1.71-.07,2.55-.76-.73-1.56-1.44-2.4-2.1-13.1-10.25-32.04-7.95-42.3,5.15-1.13,1.44-2.11,2.96-2.92,4.53-6.69,12.64-3.58,28.64,8.07,37.76,9.61,7.52,22.37,8.29,32.51,2.97,3.71-1.91,7.05-4.63,9.79-8.12.1-.12.19-.25.29-.38.22-.28.45-.55.67-.84.69-.93,1.36-1.82,1.98-2.77l.92-1.46c.3-.49.61-.93.88-1.45l.83-1.49.41-.74.38-.79c.49-1.03,1-2.04,1.4-3.13l.61-1.6.53-1.63c.37-1.08.62-2.2.86-3.28l.3-1.64c.1-.53.15-1.08.22-1.6.21-2.15.3-4.22.18-6.21-.13-1.99-.4-3.91-.77-5.75-.38-1.84-.88-3.6-1.44-5.3-.57-1.68-1.2-3.32-1.92-4.9-.68-1.56-1.43-3.09-2.25-4.57-1.57-2.95-3.35-5.71-5.19-8.37-2.53-3.66-5.28-7.04-8.1-10.3.1.09.2.17.3.27,21.01,19.76,33.36,46.5,52.1,68.3,44.38,52.55,128.52,79.74,195.74,70.28-24.62-10.81-49.6-20.4-73.72-32.2-27.33-12.99-53.19-28.48-77.88-45.85Z"/></svg>